# Blender v2.79 (sub 0) OBJ File: 'candycane.blend'
# www.blender.org
mtllib candycane.mtl
o Torus
v 0.250565 0.105750 0.000000
v 0.225508 0.105750 0.045632
v 0.175395 0.105750 0.045632
v 0.150339 0.105750 0.000000
v 0.175395 0.105750 -0.045632
v 0.225508 0.105750 -0.045632
v 0.250565 0.252294 0.000000
v 0.225508 0.244153 0.045632
v 0.175395 0.227870 0.045632
v 0.150339 0.219729 0.000000
v 0.175395 0.227870 -0.045632
v 0.225508 0.244153 -0.045632
v 0.154857 0.384024 0.000000
v 0.139372 0.362710 0.045632
v 0.108400 0.320081 0.045632
v 0.092914 0.298767 0.000000
v 0.108400 0.320081 -0.045632
v 0.139372 0.362710 -0.045632
v 0.000000 0.434340 0.000000
v -0.000000 0.407994 0.045632
v 0.000000 0.355302 0.045632
v 0.000000 0.328957 0.000000
v 0.000000 0.355302 -0.045632
v 0.000000 0.407994 -0.045632
v -0.154857 0.384024 -0.000000
v -0.139372 0.362710 0.045632
v -0.108400 0.320081 0.045632
v -0.092914 0.298767 -0.000000
v -0.108400 0.320081 -0.045632
v -0.139372 0.362710 -0.045632
v -0.250565 0.252294 -0.000000
v -0.225508 0.244153 0.045632
v -0.175395 0.227870 0.045632
v -0.150339 0.219729 -0.000000
v -0.175395 0.227870 -0.045632
v -0.225508 0.244153 -0.045632
v -0.250565 0.105750 -0.000000
v -0.225508 0.105750 0.045632
v -0.175395 0.105750 0.045632
v -0.150339 0.105750 -0.000000
v -0.175395 0.105750 -0.045632
v -0.225508 0.105750 -0.045632
v -0.250565 -0.499700 -0.000000
v -0.225508 -0.499700 0.045632
v -0.175395 -0.499700 0.045632
v -0.150339 -0.499700 -0.000000
v -0.175395 -0.499700 -0.045632
v -0.225508 -0.499700 -0.045632
v 0.200452 0.105750 0.000000
v -0.200452 -0.499700 -0.000000
vt 0.416667 1.416667
vt 0.416667 1.041667
vt 0.583333 1.041667
vt 0.583333 1.416667
vt 0.750000 1.041667
vt 0.750000 1.416667
vt 0.916667 1.041667
vt 0.916667 1.416667
vt -0.083333 1.416667
vt -0.083333 1.041667
vt 0.083333 1.041667
vt 0.083333 1.416667
vt 0.250000 1.041667
vt 0.250000 1.416667
vt 0.416667 0.666667
vt 0.583333 0.666667
vt 0.750000 0.666667
vt 0.916667 0.666667
vt -0.083333 0.666667
vt 0.083333 0.666667
vt 0.250000 0.666667
vt 0.416667 0.291667
vt 0.583333 0.291667
vt 0.750000 0.291667
vt 0.916667 0.291667
vt -0.083333 0.291667
vt 0.083333 0.291667
vt 0.250000 0.291667
vt 0.333333 1.333333
vt 0.333333 0.958333
vt 0.500000 0.958333
vt 0.500000 1.333333
vt 0.416667 0.458333
vt 0.416667 0.041667
vt 0.583333 0.041667
vt 0.583333 0.458333
vt 0.500000 0.541667
vt 0.500000 0.125000
vt 0.666667 0.125000
vt 0.666667 0.541667
vt 0.791667 0.416667
vt 0.791667 0.000000
vt 0.958333 0.000000
vt 0.958333 0.416667
vt 0.166667 1.208333
vt 0.166667 0.791667
vt 0.333333 0.791667
vt 0.333333 1.208333
vt 0.291667 1.250000
vt 0.291667 0.833333
vt 0.458333 0.833333
vt 0.458333 1.250000
vt 0.458333 0.500000
vt 0.625000 0.500000
vt 0.625000 0.833333
vt 0.791667 0.500000
vt 0.791667 0.833333
vt 0.958333 0.500000
vt 0.958333 0.833333
vt -0.041667 0.833333
vt -0.041667 0.500000
vt 0.125000 0.500000
vt 0.125000 0.833333
vt 0.291667 0.500000
vt 0.166667 0.958333
vt 0.166667 0.625000
vt 0.333333 0.625000
vt 0.375000 0.583333
vt 0.375000 0.208333
vt 0.541667 0.208333
vt 0.541667 0.583333
vt 0.041667 1.083333
vt 0.041667 0.708333
vt 0.208333 0.708333
vt 0.208333 1.083333
vt 0.166667 1.125000
vt 0.166667 0.750000
vt 0.333333 0.750000
vt 0.333333 1.125000
vt -0.000000 0.458333
vt -0.000000 0.083333
vt 0.166667 0.083333
vt 0.166667 0.458333
vt 0.708333 0.916667
vt 0.708333 0.541667
vt 0.875000 0.541667
vt 0.875000 0.916667
vt 0.500000 0.291667
vt 0.500000 -0.083333
vt 0.666667 -0.083333
vt 0.666667 0.291667
vt 0.791667 1.291667
vt 0.625000 1.291667
vt 0.625000 -0.208333
vt 0.791667 -0.208333
vt 0.833333 1.083333
vt 0.666667 1.083333
vt 0.666667 -0.416667
vt 0.833333 -0.416667
vt 0.291667 1.291667
vt 0.125000 1.291667
vt 0.125000 -0.208333
vt 0.291667 -0.208333
vt 0.416667 1.333333
vt 0.250000 1.333333
vt 0.250000 -0.166667
vt 0.416667 -0.166667
vt 0.625000 1.625000
vt 0.458333 1.625000
vt 0.458333 0.125000
vt 0.625000 0.125000
vt 0.333333 1.083333
vt 0.166667 1.083333
vt 0.166667 -0.416667
vt 0.333333 -0.416667
vt 0.920544 0.538350
vt 0.792915 0.617196
vt 0.794883 0.467190
vt 0.513294 0.488494
vt 0.625091 0.516405
vt 0.543776 0.604250
vt 0.655573 0.632162
vt 0.594609 0.400648
vt 0.706405 0.428560
vt 0.736887 0.544317
vt 0.922512 0.388344
vt 0.796851 0.317183
vt 0.669222 0.396029
vt 0.667254 0.546035
vn 0.8766 0.0000 0.4813
vn -0.0000 0.0000 1.0000
vn -0.8766 0.0000 0.4813
vn -0.8766 0.0000 -0.4813
vn 0.0000 0.0000 -1.0000
vn 0.8766 0.0000 -0.4813
vn 0.7091 0.5152 0.4813
vn -0.7091 -0.5152 0.4813
vn -0.7091 -0.5152 -0.4813
vn 0.7091 0.5152 -0.4813
vn 0.2709 0.8336 0.4813
vn -0.2709 -0.8336 0.4813
vn -0.2709 -0.8336 -0.4813
vn 0.2709 0.8336 -0.4813
vn -0.2709 0.8336 0.4813
vn 0.2709 -0.8336 0.4813
vn 0.2709 -0.8336 -0.4813
vn -0.2709 0.8336 -0.4813
vn -0.7091 0.5152 0.4813
vn 0.7091 -0.5152 0.4813
vn 0.7091 -0.5152 -0.4813
vn -0.7091 0.5152 -0.4813
vn 0.0000 -1.0000 0.0000
usemtl Material
s off
f 1/1/1 7/2/1 8/3/1 2/4/1
f 2/4/2 8/3/2 9/5/2 3/6/2
f 3/6/3 9/5/3 10/7/3 4/8/3
f 4/9/4 10/10/4 11/11/4 5/12/4
f 5/12/5 11/11/5 12/13/5 6/14/5
f 6/14/6 12/13/6 7/2/6 1/1/6
f 7/2/7 13/15/7 14/16/7 8/3/7
f 8/3/2 14/16/2 15/17/2 9/5/2
f 9/5/8 15/17/8 16/18/8 10/7/8
f 10/10/9 16/19/9 17/20/9 11/11/9
f 11/11/5 17/20/5 18/21/5 12/13/5
f 12/13/10 18/21/10 13/15/10 7/2/10
f 13/15/11 19/22/11 20/23/11 14/16/11
f 14/16/2 20/23/2 21/24/2 15/17/2
f 15/17/12 21/24/12 22/25/12 16/18/12
f 16/19/13 22/26/13 23/27/13 17/20/13
f 17/20/5 23/27/5 24/28/5 18/21/5
f 18/21/14 24/28/14 19/22/14 13/15/14
f 19/29/15 25/30/15 26/31/15 20/32/15
f 20/33/2 26/34/2 27/35/2 21/36/2
f 21/37/16 27/38/16 28/39/16 22/40/16
f 22/41/17 28/42/17 29/43/17 23/44/17
f 23/45/5 29/46/5 30/47/5 24/48/5
f 24/49/18 30/50/18 25/51/18 19/52/18
f 25/51/19 31/53/19 32/54/19 26/55/19
f 26/55/2 32/54/2 33/56/2 27/57/2
f 27/57/20 33/56/20 34/58/20 28/59/20
f 28/60/21 34/61/21 35/62/21 29/63/21
f 29/63/5 35/62/5 36/64/5 30/50/5
f 30/65/22 36/66/22 31/67/22 25/30/22
f 31/68/3 37/69/3 38/70/3 32/71/3
f 32/72/2 38/73/2 39/74/2 33/75/2
f 33/76/1 39/77/1 40/78/1 34/79/1
f 34/80/6 40/81/6 41/82/6 35/83/6
f 35/84/5 41/85/5 42/86/5 36/87/5
f 36/88/4 42/89/4 37/90/4 31/91/4
f 40/92/1 39/93/1 45/94/1 46/95/1
f 39/96/2 38/97/2 44/98/2 45/99/2
f 37/100/4 42/101/4 48/102/4 43/103/4
f 38/104/3 37/105/3 43/106/3 44/107/3
f 41/108/6 40/109/6 46/110/6 47/111/6
f 42/112/5 41/113/5 47/114/5 48/115/5
f 46/116/23 45/117/23 50/118/23
f 1/119/23 49/120/23 6/121/23
f 6/121/23 49/120/23 5/122/23
f 49/120/23 2/123/23 3/124/23
f 5/122/23 49/120/23 4/125/23
f 49/120/23 1/119/23 2/123/23
f 4/125/23 49/120/23 3/124/23
f 47/126/23 50/118/23 48/127/23
f 48/127/23 50/118/23 43/128/23
f 50/118/23 45/117/23 44/129/23
f 43/128/23 50/118/23 44/129/23
f 50/118/23 47/126/23 46/116/23
