# Blender v2.79 (sub 0) OBJ File: 'stocking.blend'
# www.blender.org
mtllib stocking.mtl
o Plane.001
v 0.129377 0.450000 0.377819
v 0.129377 0.250000 0.377819
v -0.070623 0.450000 0.377819
v -0.070623 0.250000 0.377819
vt 0.666667 0.625000
vt 0.666667 -0.000000
vt 0.916667 -0.000000
vt 0.916667 0.625000
vn 0.0000 0.0000 -1.0000
usemtl Material
s off
f 1/1/1 2/2/1 4/3/1 3/4/1
o Plane
v 0.051900 0.510708 0.500000
v 0.051900 0.310708 0.500000
v 0.051900 0.510708 0.300000
v 0.051900 0.310708 0.300000
vt 0.812500 1.125000
vt 0.812500 0.625000
vt 0.979167 0.625000
vt 0.979167 1.125000
vn 1.0000 0.0000 0.0000
usemtl Material
s off
f 5/5/2 6/6/2 8/7/2 7/8/2
o Cube.001
v 0.114759 -0.203590 0.462918
v -0.114759 0.213580 0.462918
v -0.058163 -0.248184 0.377819
v -0.266335 0.130187 0.377819
v 0.292921 -0.105569 0.377819
v 0.063402 0.311601 0.377819
v 0.114759 -0.203590 0.292720
v -0.114759 0.213580 0.292720
v -0.047172 0.090735 0.477512
v -0.229301 -0.009469 0.377819
v 0.161543 0.205565 0.377819
v -0.047172 0.090735 0.278126
v -0.089331 -0.315876 0.292720
v 0.200788 -0.359955 0.462918
v 0.318289 -0.276599 0.377819
v 0.200788 -0.359955 0.292720
v -0.089331 -0.315876 0.462918
v -0.048571 -0.441585 0.462918
v -0.048571 -0.441585 0.292720
v -0.172480 -0.350102 0.377819
v -0.128465 -0.468303 0.377819
v 0.213693 -0.382983 0.377819
v -0.045898 -0.479872 0.377819
vt -0.000000 0.187500
vt 0.145833 0.187500
vt 0.145833 0.625000
vt -0.000000 0.625000
vt 0.145833 0.625000
vt 0.145833 0.187500
vt -0.000000 0.187500
vt -0.000000 0.625000
vt 0.208333 0.000000
vt 0.333333 0.000000
vt 0.333333 0.437500
vt 0.208333 0.437500
vt 0.333333 0.437500
vt 0.333333 0.000000
vt 0.208333 0.000000
vt 0.208333 0.437500
vt 0.333333 1.000000
vt 0.333333 0.750000
vt 0.062500 0.750000
vt 0.062500 1.000000
vt 0.666667 0.000000
vt 0.333333 0.500000
vt 0.666667 0.500000
vt 0.666667 0.500000
vt 0.333333 0.500000
vt 0.333333 1.000000
vt 0.666667 1.000000
vt 0.666667 0.000000
vt 0.333333 0.500000
vt 0.666667 0.500000
vt 0.666667 0.500000
vt 0.333333 0.500000
vt 0.333333 1.000000
vt 0.666667 1.000000
vt 0.291667 0.500000
vt 0.145833 0.500000
vt 0.145833 0.250000
vt 0.291667 0.250000
vt 0.145833 0.250000
vt 0.291667 0.250000
vt 0.291667 0.000000
vt 0.145833 0.000000
vt 0.333333 0.500000
vt 0.333333 0.750000
vt 0.062500 0.750000
vt 0.062500 0.500000
vt 0.333333 0.312500
vt 0.229167 0.312500
vt 0.229167 0.625000
vt 0.333333 0.625000
vt 0.125000 0.312500
vt 0.229167 0.312500
vt 0.229167 0.625000
vt 0.125000 0.625000
vt 0.145833 0.625000
vt -0.000000 0.625000
vt -0.000000 0.812500
vt 0.145833 0.812500
vt 0.145833 0.812500
vt -0.000000 0.812500
vt -0.000000 1.000000
vt 0.145833 1.000000
vt 0.020833 0.187500
vt 0.145833 0.125000
vt 0.145833 0.187500
vt 0.062500 0.000000
vt 0.062500 0.062500
vt -0.000000 0.062500
vt 0.125000 0.437500
vt 0.062500 0.437500
vt 0.062500 0.000000
vt 0.125000 0.000000
vt 0.020833 0.125000
vt 0.020833 0.187500
vt 0.145833 0.125000
vt -0.000000 0.000000
vt -0.000000 0.062500
vt 0.062500 0.000000
vt 0.062500 0.000000
vt -0.000000 0.000000
vt -0.000000 0.437500
vt 0.062500 0.437500
vn -0.3867 -0.2128 0.8973
vn -0.3867 -0.2128 -0.8973
vn 0.3382 0.1861 -0.9225
vn 0.3382 0.1861 0.9225
vn 0.0000 0.0000 1.0000
vn -0.2906 -0.2690 0.9183
vn 0.4290 0.1212 -0.8951
vn -0.2906 -0.2690 -0.9183
vn 0.4290 0.1212 0.8951
vn -0.4254 -0.1448 -0.8933
vn -0.4254 -0.1448 0.8933
vn -0.0000 -0.0000 -1.0000
vn -0.5080 0.7551 0.4146
vn -0.5080 0.7551 -0.4146
vn 0.6605 0.2296 0.7149
vn 0.6605 0.2296 -0.7149
vn -0.6834 0.6719 0.2855
vn 0.1270 0.9061 -0.4037
vn -0.3104 0.8849 0.3472
vn -0.6834 0.6719 -0.2855
vn 0.1270 0.9061 0.4037
vn -0.3104 0.8849 -0.3472
usemtl Material
s off
f 9/9/3 10/10/3 12/11/3 11/12/3
f 11/13/4 12/14/4 16/15/4 15/16/4
f 15/17/5 16/18/5 14/19/5 13/20/5
f 13/21/6 14/22/6 10/23/6 9/24/6
f 24/25/7 15/26/7 21/27/7 27/28/7
f 14/29/8 16/18/8 20/30/8 19/31/8
f 12/32/9 10/33/9 17/34/9 18/35/9
f 10/36/10 14/22/10 19/37/10 17/38/10
f 16/39/11 12/40/11 18/41/11 20/42/11
f 9/43/12 13/44/12 23/45/12 22/46/12
f 13/47/13 15/48/13 24/49/13 23/50/13
f 9/51/14 22/52/14 26/53/14 25/54/14
f 11/55/15 28/56/15 25/57/15 9/58/15
f 11/59/16 15/60/16 21/61/16 28/62/16
f 27/63/17 21/64/17 28/65/17 29/66/17
f 26/67/18 29/68/18 28/69/18 25/70/18
f 23/71/19 24/72/19 30/73/19
f 26/74/20 31/75/20 29/76/20
f 30/77/21 24/78/21 27/79/21 31/80/21
f 30/81/22 22/82/22 23/83/22
f 31/84/23 27/85/23 29/86/23
f 31/87/24 26/88/24 22/89/24 30/90/24
